<?xml version="1.0" encoding="UTF-8" standalone="no"?>
<!-- Created with Inkscape (http://www.inkscape.org/) -->

<svg
   width="133.55725mm"
   height="71.118752mm"
   viewBox="0 0 133.55725 71.118752"
   version="1.1"
   id="svg16372"
   xmlns="http://www.w3.org/2000/svg"
   xmlns:svg="http://www.w3.org/2000/svg">
  <defs
     id="defs16369" />
  <rect
     style="fill:#ffffff;stroke-width:0.264975"
     id="rect55"
     width="133.55725"
     height="71.118752"
     x="0"
     y="0" />
  <g
     id="layer1"
     transform="translate(-35.663659,-70.60057)">
    <g
       transform="matrix(0.26458333,0,0,0.26458333,28.489655,63.429737)"
       id="g16426">
      <text
         font-family="Calibri, Calibri_MSFontService, sans-serif"
         font-weight="400"
         font-size="17px"
         transform="translate(192.279,59)"
         id="text16376">Show me the details</text>
      <text
         font-family="Calibri, Calibri_MSFontService, sans-serif"
         font-weight="400"
         font-size="17px"
         transform="translate(200.853,80)"
         id="text16378">about material XY</text>
      <g
         id="g16394">
        <g
           id="g16392">
          <g
             id="g16390">
            <path
               d="m 55.1422,38.1047 -0.9094,-2.9906 c -1.8201,0.549 -3.7114,0.8264 -5.6125,0.8234 h -3.3078 v 3.125 h 3.3078 c 2.2092,0.0036 4.4069,-0.3191 6.5219,-0.9578 z"
               transform="matrix(1,0,0,1.01,42,92)"
               id="path16380" />
            <path
               d="M 95.3469,74.6969 87.5,59.0062 V 43.75 c 0,-0.863 -0.6995,-1.5625 -1.5625,-1.5625 h -9.375 C 75.6995,42.1875 75,42.887 75,43.75 V 58.1031 L 63.2703,55.7516 59.375,52.4078 v -7.1375 c 3.487,-2.6092 5.7192,-6.5619 6.1531,-10.8953 h 0.0969 c 3.4448,0.0042 6.2409,-2.7848 6.2453,-6.2297 0.0034,-2.8491 -1.9237,-5.3383 -4.6828,-6.0484 V 21.875 c 0,-1.3248 -0.5691,-2.5859 -1.5625,-3.4625 v -5.725 C 65.6395,9.08214 62.7286,6.14766 59.1233,6.13312 58.8586,6.13205 58.5941,6.14708 58.3313,6.17812 56.0983,4.22194 53.2342,3.13777 50.2656,3.125 H 43.75 C 41.7253,3.11383 39.7531,3.76883 38.1375,4.98906 37.7727,5.25664 37.4284,5.55122 37.1078,5.87031 35.3544,7.63073 34.3714,10.0153 34.375,12.5 c 0.0022,0.4386 0.1908,0.8556 0.5188,1.1469 -0.3397,1.1497 -0.5144,2.3418 -0.5188,3.5406 v 1.2313 c -0.9919,0.8751 -1.5608,2.1335 -1.5625,3.4562 v 0.2219 c -3.3353,0.8654 -5.3375,4.2708 -4.472,7.6061 0.7134,2.7495 3.194,4.67 6.0345,4.672 h 0.0969 c 0.4336,4.3341 2.6658,8.2872 6.1531,10.8969 v 7.1359 l -3.8937,3.3438 -10.1688,2.0312 V 37.5 c 0,-0.863 -0.6995,-1.5625 -1.5625,-1.5625 h -9.375 c -0.863,0 -1.5625,0.6995 -1.5625,1.5625 V 57.8125 H 9.6875 C 7.78902,57.8125 6.25,59.3516 6.25,61.25 V 71.7719 L 4.08125,88.0312 c -0.56955,4.2771 2.43592,8.2058 6.71285,8.7754 0.3418,0.0456 0.6862,0.0684 1.0309,0.0684 h 8.4875 c 0.6306,0 1.1994,-0.3789 1.4422,-0.9609 L 26.5625,84.375 v 12.5 h 3.125 V 76.5625 c 2e-4,-0.863 -0.6992,-1.5627 -1.5622,-1.5628 -0.6308,-2e-4 -1.1998,0.3791 -1.4425,0.9612 L 20.3125,91.25 V 76.275 c 1.8662,-0.6598 3.1167,-2.4206 3.125,-4.4 v -2.4172 c 1.9336,-1.1081 3.1259,-3.1667 3.125,-5.3953 v -3.0937 l 8.4906,-1.6954 -3.714,10.5188 c -0.2874,0.8137 0.1393,1.7062 0.9529,1.9936 0.1672,0.059 0.3432,0.0892 0.5205,0.0892 h 2.6859 l -1.0765,4.3094 c -0.1708,0.6858 0.14,1.4008 0.7578,1.7437 l 13.2578,7.3657 V 96.875 h 3.125 V 85.2938 l 13.2578,-7.3657 c 0.6178,-0.3429 0.9286,-1.0579 0.7578,-1.7437 L 64.5016,71.875 h 2.6859 c 0.863,0 1.5625,-0.6994 1.5627,-1.5623 0,-0.1774 -0.0302,-0.3533 -0.0893,-0.5205 l -3.714,-10.5172 9.0203,1.8078 -4.2469,8.4985 c -0.0078,0.0125 -0.0172,0.0218 -0.025,0.0343 L 66.4609,76.1 c -1.7031,3.3873 -0.7395,7.5081 2.2891,9.7891 V 96.875 h 3.125 v -9.5641 c 0.4253,0.0914 0.8575,0.1468 1.2922,0.1657 l 3.5156,8.4375 c 0.2428,0.582 0.8116,0.9609 1.4422,0.9609 h 10.9375 c 4.3127,-0.0052 7.8073,-3.4998 7.8125,-7.8125 V 77.7359 c -0.0091,-1.1956 -0.5737,-2.3189 -1.5281,-3.039 z m -6.2141,2.0906 -0.3125,1.2234 -3.9578,-3.4015 c -1.13,-0.9731 -2.6453,-1.3713 -4.1078,-1.0797 -1.4489,0.2748 -2.6899,1.2033 -3.3625,2.5156 l -3.4375,6.7188 C 73.6975,83.2673 73.5345,83.8133 73.4734,84.375 72.638,84.373 71.8184,84.1469 71.1,83.7203 68.9383,82.4606 68.1305,79.7359 69.2562,77.5016 l 2.8125,-5.625 h 18.3719 l 1.1281,2.2546 c -0.1203,0.0438 -0.2437,0.0719 -0.3593,0.1266 -1.0311,0.4961 -1.791,1.4217 -2.0766,2.5297 z M 77.9688,60.0578 c 0.1035,-0.2126 0.157,-0.4462 0.1562,-0.6828 V 45.3125 h 6.25 V 59.375 c -0.0027,0.2417 0.0508,0.4808 0.1562,0.6984 L 88.8781,68.75 H 73.6297 l 4.0625,-8.1141 z M 50,48.4375 c 2.1533,-0.0055 4.2817,-0.4594 6.25,-1.3328 v 5.4531 l -6.25,7.5 -6.25,-7.5 v -5.4531 c 1.9683,0.8731 4.0967,1.327 6.25,1.3328 z m 0,32.2094 -1.5625,-3.3813 V 66.7188 L 50,64.8953 l 1.5625,1.8235 v 10.5468 z m 4.6875,-10.2797 0.0406,0.0484 -0.0406,0.0875 z m -9.375,0.1359 -0.0406,-0.0875 0.0406,-0.0484 z m 10.8563,-3.2062 -4.1219,-4.811 5.95,-7.1422 2.6453,2.2719 z m -8.2157,-4.811 -4.1219,4.811 -4.4734,-9.6875 2.6453,-2.2719 z M 38.025,14.0625 h 1.8594 c -0.4813,1.0703 -1.0047,2.1125 -1.5797,3.125 H 37.5 c -0.0031,-1.0639 0.1744,-2.1206 0.525,-3.125 z m 18.7641,0 c 0.3312,0.7406 0.839,1.8375 1.5,3.125 H 41.8516 c 0.5207,-1.0188 0.9964,-2.0604 1.4265,-3.125 z M 36.7266,31.0422 c -0.4869,-0.2774 -0.788,-0.7944 -0.7891,-1.3547 V 21.875 c 0.0014,-0.5608 0.3031,-1.0777 0.7906,-1.3547 0.2344,-0.1362 0.5008,-0.2078 0.7719,-0.2078 h 25 c 0.2089,-0.0031 0.4159,0.0402 0.6063,0.1266 0.0542,0.0301 0.11,0.0573 0.1671,0.0812 0.4869,0.2774 0.788,0.7944 0.7891,1.3547 v 7.8125 c -0.0014,0.5608 -0.3031,1.0777 -0.7906,1.3547 C 63.0375,31.1784 62.7711,31.25 62.5,31.25 h -6.25 c -0.4531,0 -0.8758,-0.2278 -1.125,-0.6063 l -1.3953,-2.0765 c -1.3624,-2.06 -4.1367,-2.6255 -6.1967,-1.2631 -0.496,0.3279 -0.9214,0.7515 -1.2518,1.2459 l -1.4171,2.1109 c -0.25,0.3697 -0.6678,0.5907 -1.1141,0.5891 H 37.5 c -0.2716,-2e-4 -0.5384,-0.0717 -0.7734,-0.2078 z M 68.75,28.125 c 0.0089,1.1788 -0.6595,2.2578 -1.7188,2.775 0.1044,-0.3956 0.1569,-0.8033 0.1563,-1.2125 v -4.2531 c 0.9637,0.5537 1.5592,1.5792 1.5625,2.6906 z M 62.5,12.6875 v 4.5 h -0.6734 c -1.2313,-2.2484 -2.1391,-4.2828 -2.4516,-5 V 9.23906 c 1.7719,0.17792 3.1219,1.66764 3.125,3.44844 z M 56.25,8.49219 V 10.9375 H 53.8766 L 50.1266,6.25 h 0.139 c 2.1989,0.00664 4.3225,0.80227 5.9844,2.24219 z M 46.1234,6.25 l 3.75,4.6875 H 45.9672 L 41.6422,6.62031 C 42.3181,6.37597 43.0312,6.25067 43.75,6.25 Z m -7.1,2.17031 2.5172,2.51719 h -3.8453 c 0.2436,-0.9299 0.698,-1.79123 1.3281,-2.51719 z M 31.25,28.125 c 0.0033,-1.1114 0.5987,-2.1369 1.5625,-2.6906 v 4.2531 c -6e-4,0.4081 0.0519,0.8147 0.1563,1.2094 C 31.908,30.3831 31.2386,29.3036 31.25,28.125 Z m 6.3484,6.25 H 43.75 c 1.4959,0.0089 2.895,-0.7388 3.7188,-1.9875 l 1.4171,-2.1109 c 0.4747,-0.6147 1.3578,-0.7282 1.9725,-0.2535 0.1007,0.0777 0.1903,0.1688 0.2666,0.2707 l 1.3953,2.0765 c 0.8228,1.2574 2.227,2.012 3.7297,2.0047 h 6.1516 c -0.4505,3.5967 -2.4438,6.8192 -5.461,8.8281 -4.2162,2.7611 -9.6681,2.7611 -13.8843,0 -3.0165,-2.009 -5.0088,-5.2319 -5.4579,-8.8281 z m -14.1609,4.6875 v 12.5 h -6.25 v -12.5 z M 14.0625,93.75 H 11.825 C 9.23617,93.7455 7.14116,91.6431 7.14566,89.0544 7.14602,88.8481 7.15998,88.642 7.1875,88.4375 L 8.78125,76.4266 c 0.29458,0.0859 0.59942,0.1315 0.90625,0.1359 h 7.5 V 93.75 Z m 6.25,-21.875 c 0,0.863 -0.6995,1.5625 -1.5625,1.5625 H 9.6875 C 9.51491,73.4375 9.375,73.2977 9.375,73.125 V 61.25 c 0,-0.1727 0.13991,-0.3125 0.3125,-0.3125 H 18.75 c 0.863,0 1.5625,0.6995 1.5625,1.5625 z m 3.125,-9.375 c 0,-2.5889 -2.0986,-4.6875 -4.6875,-4.6875 h -1.5625 v -3.125 h 6.25 z m 15.2938,6.8516 C 38.4353,68.9722 37.9811,68.7503 37.5,68.75 h -2.4781 l 2.6125,-7.3984 8.9375,19.3312 -8.8281,-4.9016 1.2718,-5.0875 c 0.1172,-0.4673 0.0124,-0.9625 -0.2843,-1.3421 z M 62.5,68.75 c -0.863,3e-4 -1.5623,0.7 -1.562,1.563 0,0.1273 0.0156,0.254 0.0464,0.3776 l 1.2719,5.0875 -8.8282,4.9047 8.9375,-19.3312 2.6125,7.3984 z M 77.9969,90.9375 81.3016,93.75 H 79.1672 Z M 93.75,89.0625 c 0,2.5889 -2.0986,4.6875 -4.6875,4.6875 h -2.9359 l -8.9391,-7.5969 c -0.6055,-0.4575 -0.7947,-1.284 -0.4484,-1.9594 l 3.4375,-6.7187 c 0.2378,-0.4575 0.6728,-0.7803 1.1797,-0.875 0.5229,-0.1077 1.0662,0.0338 1.4703,0.3828 l 5.8656,5.0422 c 0.654,0.5628 1.6406,0.4889 2.2036,-0.1653 0.1569,-0.1824 0.2695,-0.3984 0.3292,-0.6316 l 0.9375,-3.6609 c 0.057,-0.2183 0.2091,-0.3995 0.4141,-0.4938 0.225,-0.1095 0.4868,-0.114 0.7156,-0.0125 0.2776,0.1132 0.4617,0.38 0.4687,0.6797 z"
               transform="matrix(1,0,0,1.01,42,92)"
               id="path16382" />
            <path
               d="m 42.1875,87.5 h 3.125 v 3.125 h -3.125 z"
               transform="matrix(1,0,0,1.01,42,92)"
               id="path16384" />
            <path
               d="m 41.4062,23.4375 c -1.2943,0 -2.3437,1.0494 -2.3437,2.3437 0,1.2944 1.0494,2.3438 2.3437,2.3438 1.2944,0 2.3438,-1.0494 2.3438,-2.3438 0,-1.2943 -1.0494,-2.3437 -2.3438,-2.3437 z"
               transform="matrix(1,0,0,1.01,42,92)"
               id="path16386" />
            <path
               d="m 58.5938,28.125 c 1.2943,0 2.3437,-1.0494 2.3437,-2.3438 0,-1.2943 -1.0494,-2.3437 -2.3437,-2.3437 -1.2944,0 -2.3438,1.0494 -2.3438,2.3437 0,1.2944 1.0494,2.3438 2.3438,2.3438 z"
               transform="matrix(1,0,0,1.01,42,92)"
               id="path16388" />
          </g>
        </g>
      </g>
      <rect
         x="357"
         y="46"
         width="156"
         height="74"
         fill="#70ad47"
         id="rect16396" />
      <text
         fill="#ffffff"
         font-family="Calibri, Calibri_MSFontService, sans-serif"
         font-weight="400"
         font-size="17px"
         transform="translate(417.822,68)"
         id="text16398">LIMS</text>
      <text
         fill="#ffffff"
         font-family="Calibri, Calibri_MSFontService, sans-serif"
         font-weight="400"
         font-size="17px"
         transform="translate(407.528,89)"
         id="text16400">“Source</text>
      <text
         fill="#ffffff"
         font-family="Calibri, Calibri_MSFontService, sans-serif"
         font-weight="400"
         font-size="17px"
         transform="translate(391.802,109)"
         id="text16402">Application”</text>
      <rect
         x="357"
         y="203"
         width="156"
         height="74"
         fill="#70ad47"
         id="rect16404" />
      <text
         fill="#ffffff"
         font-family="Calibri, Calibri_MSFontService, sans-serif"
         font-weight="400"
         font-size="17px"
         transform="translate(421.541,225)"
         id="text16406">ELN</text>
      <text
         fill="#ffffff"
         font-family="Calibri, Calibri_MSFontService, sans-serif"
         font-weight="400"
         font-size="17px"
         transform="translate(409.401,246)"
         id="text16408">“Target</text>
      <text
         fill="#ffffff"
         font-family="Calibri, Calibri_MSFontService, sans-serif"
         font-weight="400"
         font-size="17px"
         transform="translate(391.774,266)"
         id="text16410">Application”</text>
      <path
         d="m 170,89 178.237,1e-4 v 4 L 170,93 Z m 176.237,-3.9999 12,6 -12,6 z"
         fill="#4472c4"
         id="path16412" />
      <text
         font-family="Calibri, Calibri_MSFontService, sans-serif"
         font-weight="400"
         font-size="17px"
         transform="translate(163.043,155)"
         id="text16414">Forward user to a tool that knows</text>
      <text
         font-family="Calibri, Calibri_MSFontService, sans-serif"
         font-weight="400"
         font-size="17px"
         transform="translate(221.663,176)"
         id="text16416">more about that material</text>
      <path
         d="M 2,-6.68249e-4 2.02448,73.2663 l -4,0.0014 L -2,6.68249e-4 Z M 6.02381,71.265 0.0278215,83.267 -5.97619,71.269 Z"
         fill="#4472c4"
         transform="matrix(-1,0,0,1,435.028,120)"
         id="path16418" />
      <path
         d="M 1.13623e-6,-2 174.798,-1.9999 v 4 L -1.13623e-6,2 Z M 172.798,-5.9999 l 12,6.000004987 -12,5.999995013 z"
         fill="#4472c4"
         transform="matrix(-1,0,0,1,354.798,229)"
         id="path16420" />
      <text
         font-family="Calibri, Calibri_MSFontService, sans-serif"
         font-weight="400"
         font-size="17px"
         transform="translate(216.442,251)"
         id="text16422">Structural Info</text>
      <text
         font-family="Calibri, Calibri_MSFontService, sans-serif"
         font-weight="400"
         font-size="17px"
         transform="translate(75.7464,220)"
         id="text16424">User</text>
    </g>
  </g>
</svg>
